<svg id="Layer_1" data-name="Layer 1" xmlns="http://www.w3.org/2000/svg" viewBox="0 0 872.96 872.96"><defs><style>.cls-1{fill:#010101;}</style></defs><path d="M162.26,407.58c18.44.93,44.36,2.21,44.31,18.79,0,18.88-21.64,23.36-44.85,23.36s-42.4-2.85-44.86-23.36h27c2.95,5.11,9.79,6.44,17.86,6.44s17.85-1.33,17.85-6.44c0-2.91-8-3.35-18.4-3.84-18.44-.93-44.36-2.21-44.31-18.74,0-18.89,21.64-23.41,44.86-23.41s42.39,2.75,44.85,23.41h-27c-2.95-5.21-9.79-6.44-17.85-6.44s-17.86,1.18-17.86,6.44C143.86,406.69,151.88,407.09,162.26,407.58Z"/><path d="M345.39,382v45.15H397v21H319.62V382Z"/><path d="M446.66,407.58c18.44.93,44.36,2.21,44.31,18.79,0,18.88-21.64,23.36-44.85,23.36s-42.4-2.85-44.86-23.36h27c2.95,5.11,9.79,6.44,17.86,6.44S464,431.48,464,426.37c0-2.91-8-3.35-18.4-3.84-18.44-.93-44.36-2.21-44.31-18.74,0-18.89,21.64-23.41,44.86-23.41s42.39,2.75,44.85,23.41H464c-3-5.21-9.79-6.44-17.85-6.44s-17.86,1.18-17.86,6.44C428.26,406.69,436.28,407.09,446.66,407.58Z"/><path d="M525.05,448.21V403.05H494.4V382.1h87.06v20.95H550.82v45.16Z"/><path d="M611.85,382v66.11H586.08V382Z"/><path d="M708.26,420.71c-1.63,22.33-21.2,29-45,29-24.79-.05-45.25-7.23-45.15-32.27v-4.82c-.1-25,20.36-32.16,45.15-32.26,23.81.05,43.38,6.74,45,29H681.84c-2.41-6.5-9.74-8-18.59-8-10.53.15-19.48,2-19.33,12.89v1.62c-.15,10.77,8.8,12.74,19.33,12.89,8.85,0,16.23-1.58,18.59-8.07Z"/><path d="M715.92,382.1h77.37V399h-51.6v8.46h51.6v15.3h-51.6v8.46h51.6v17H715.92Z"/><path class="cls-1" d="M326.56,413.62a2.53,2.53,0,0,1-.41-.78,2.74,2.74,0,0,0-.93-1.27,23.93,23.93,0,0,0-2.87-1.55c-2.3-1-4.79-1.24-7.17-1.94a33,33,0,0,0-6.06-1c-3-.3-6-.48-9-.71-4.81-.36-9.62-.71-14.42-1.09-2.89-.22-5.79-.38-8.66-.75-3.14-.41-6.31-.53-9.45-.78-2.73-.22-5.47-.34-8.2-.57-3.56-.3-7.12-.53-10.68-.75s-7.32-.39-11-.72c-2-.18-2-.22-1-2.07a33.07,33.07,0,0,1,6.51-7.55,9.07,9.07,0,0,0,.72-.67c.15-.15.49-.2.37-.51s-.44-.23-.69-.27c-.66-.09-1.29.22-1.93.16a38.47,38.47,0,0,0-5.58.24,90,90,0,0,0-10.59,1.38,36,36,0,0,0-7.13,2,15.09,15.09,0,0,0-4.17,2.31c-1.27,1.07-1.33,2.08-.22,3.34a3.46,3.46,0,0,0,1,.84,12.3,12.3,0,0,0,3.83,1.25l2.81.41c3,.44,6,.79,9.07,1.15,3.32.38,6.65.68,10,1,3.12.34,6.24.73,9.35,1.1l8,1c2.35.29,4.72.49,7,.91,3.45.62,6.89,1.35,10.31,2.15a33.86,33.86,0,0,1,11.07,4.31c2.94,1.92,5,4.38,4.14,8.25-.1.49.16.52.56.5,3.33-.22,6.66-.52,10-.94,4.69-.6,9.37-1.28,14-2.21a30.09,30.09,0,0,0,5.29-1.4,10.56,10.56,0,0,0,5.51-2.86l.21-.32c.15-.42,0-.9.33-1.28Z"/><path class="cls-1" d="M309.68,428.44a17.28,17.28,0,0,0-6.13-1.89c-2.05-.4-4.14-.56-6.21-.88q-4.9-.75-9.86-1c-1.76-.1-3.52-.34-5.29-.4s-3.76-.34-5.65-.46c-3.45-.22-6.91-.35-10.36-.59-3.8-.25-7.6-.59-11.41-.87-3.47-.26-7-.41-10.43-.78s-6.91-.42-10.35-.73a.86.86,0,0,1-.93-.84,35.66,35.66,0,0,1-.35-3.87,33.64,33.64,0,0,1,.76-8c.35-1.63.4-1.62-1.25-1.49l-.54,0c-3.65.29-7.31.55-11,.86s-7.11,1.1-10.68,1.6a29.88,29.88,0,0,0-5.16,1.34,19.35,19.35,0,0,0-5.26,2.22,3.19,3.19,0,0,0,.16,5.56,23.53,23.53,0,0,0,5.11,1.86c2.49.64,5,1.08,7.56,1.49,3.44.57,6.9,1,10.38,1.3,3.33.24,6.67.54,10,.7,3.64.17,7.27.45,10.91.68,3.84.24,7.67.53,11.5.93,3.41.35,6.81.79,10.2,1.34a62.18,62.18,0,0,1,11.89,2.83,13.71,13.71,0,0,1,4.76,2.51,2.84,2.84,0,0,1,.45,4.18,15.21,15.21,0,0,1-2.74,2.68c3.64,0,7-.23,10.38-.45a83.63,83.63,0,0,0,14-2.12,14.72,14.72,0,0,0,5.67-2.34A3.09,3.09,0,0,0,309.68,428.44Z"/><path class="cls-1" d="M234.36,386.88a15.5,15.5,0,0,0,3.46,1c3.59.64,7.22.95,10.83,1.36,7.27.83,14.54,1.63,21.71,3.1a45.22,45.22,0,0,1,12.78,4.39c2.92,1.59,5.43,3.63,6.69,6.84.21.54.57.41.92.42A57.78,57.78,0,0,0,305,402.17a16.48,16.48,0,0,0,7.76-3.84,1.37,1.37,0,0,0,.5-1.26,3.35,3.35,0,0,0-2.18-2.68,36.54,36.54,0,0,0-5-1.61,68.47,68.47,0,0,0-7.07-1.15c-1.52-.25-3.09-.31-4.64-.43-3-.25-6.06-.56-9.1-.65-4.17-.13-8.32-.55-12.47-.91-4.69-.41-9.36-1-14-1.63a52.06,52.06,0,0,1-5.2-.91,1.08,1.08,0,0,1,.75-.53,21.58,21.58,0,0,1,5.07-1.23,28.13,28.13,0,0,1,15.16,2.38,4.61,4.61,0,0,0,1.94.58,55.82,55.82,0,0,0,10.41-.75,8.77,8.77,0,0,0,3.21-1.21,1.86,1.86,0,0,0,.67-2.74,4.18,4.18,0,0,0-1.95-1.31,31.87,31.87,0,0,0-4.71-1c-1.09-.2-2.23-.15-3.32-.34a41.07,41.07,0,0,0-7.05-.75c-9,0-18-.39-27,.77-2.75.35-5.5.64-8.22,1.17a12.63,12.63,0,0,0-4.34,1.4,2.19,2.19,0,0,0-1.09,2C233.09,386.26,233.75,386.61,234.36,386.88Z"/><path class="cls-1" d="M290.24,442.8a9.48,9.48,0,0,0-1.45-.66,43.13,43.13,0,0,0-8.43-1.61c-2.69-.36-5.4-.62-8.1-.92l-6.25-.7c-3.16-.36-6.34-.71-9.5-1.08q-2.82-.33-5.63-.74c-1.6-.24-3.19-.54-4.8-.78a23.9,23.9,0,0,0-3.15-.35,2.28,2.28,0,0,1-1.76-.64c-.86-.9-1.69-1.83-2.51-2.76A24.06,24.06,0,0,1,235,426a1.13,1.13,0,0,0-1.34-.78c-2.74.19-5.48.33-8.2.77a52.94,52.94,0,0,0-8.62,1.94,16.79,16.79,0,0,0-4.51,2.33,2.29,2.29,0,0,0-.12,3.72,5.68,5.68,0,0,0,1,.63c2.49,1.39,5.27,1.83,8,2.35a100,100,0,0,0,10.49,1.1c6.29.48,12.55,1.32,18.83,1.82s12.6,1.25,18.87,2.18a10.48,10.48,0,0,0,1.85.29c.49,0,.36.23.12.46-1,.21-2,.6-3,.91a26.43,26.43,0,0,1-4.78.65,30.22,30.22,0,0,1-14.65-3.21A1.93,1.93,0,0,0,248,441a48.19,48.19,0,0,0-6.36.59,21.38,21.38,0,0,0-5.88,1.61c-.87.42-1.94.86-1.89,2s1.23,1.54,2.22,1.85a23.88,23.88,0,0,0,3.12.61q5.52,1,11.08,1.52c4,.41,8,.66,12.07.71a88.66,88.66,0,0,0,23.07-2.32,14.26,14.26,0,0,0,4.93-2.09C291.69,444.55,291.65,443.59,290.24,442.8Z"/><path class="cls-1" d="M249.17,376.29a15.79,15.79,0,0,0,3.9.73,74.74,74.74,0,0,0,9.23.36c1.06,0,2.13,0,3.2,0a35.27,35.27,0,0,0,9.38-.95c.59-.15,1.37-.24,1.4-1s-.79-.9-1.33-1.08a21.59,21.59,0,0,0-6.41-1.12,108,108,0,0,0-15.68.42,12.84,12.84,0,0,0-3.75.9c-.39.18-.82.38-.78.95S248.78,376.14,249.17,376.29Z"/><path class="cls-1" d="M275.34,454c-.71-.17-1.4-.41-2.14-.52a68,68,0,0,0-10.28-.49h-2.58a45.88,45.88,0,0,0-10.33.85c-.64.15-1.52.24-1.54,1.07s.87.73,1.4,1a1.82,1.82,0,0,0,.25.07,30.68,30.68,0,0,0,7.9,1.06,82.66,82.66,0,0,0,12.78-.32,16.83,16.83,0,0,0,4.64-1.12c.34-.15.75-.35.67-.83A1,1,0,0,0,275.34,454Z"/></svg>